<svg version="1.2" xmlns="http://www.w3.org/2000/svg" viewBox="0 0 48 48" width="48" height="48">
	<title>Pen-Tool--Streamline-Plump</title>
	<style>
		.s0 { fill: #3684db } 
		.s1 { fill: #ffffff } 
	</style>
	<g id="pen-tool">
		<path id="Union" class="s0" d="m28.3 1.6c-1.5-0.2-2.8 0.8-3.3 2.1-0.8 2.1-2.1 6.3-2.5 10.6-0.1 0.7 0.4 1.4 1 1.6 3.7 1.2 7.4 4.9 8.6 8.6 0.2 0.6 0.9 1.1 1.6 1 4.3-0.4 8.5-1.7 10.6-2.5 1.3-0.5 2.3-1.8 2.1-3.3-0.4-4.5-2.8-8.8-6-12.1-3.3-3.2-7.6-5.6-12.1-6z"/>
		<path id="Union_2" class="s1" d="m22.1 13c1.2 0 2.5 0.1 3.6 0.6 1.4 0.7 3.4 1.9 5.1 3.6 1.7 1.7 2.9 3.7 3.6 5.1 0.5 1.1 0.6 2.4 0.6 3.6-0.3 4.4-0.8 7.9-1.2 10.3-0.5 2.6-2.4 4.7-4.9 5.4-6.8 2-12.2 3.2-16 3.9q-2.8 0.5-4.3 0.7c-0.9 0.1-1.9 0.4-2.8 0.3-0.8-0.1-1.9-0.5-2.8-1.5-1-0.9-1.4-2-1.5-2.8-0.1-0.9 0.2-1.9 0.3-2.8q0.2-1.5 0.7-4.3c0.7-3.8 1.9-9.2 3.9-16 0.7-2.5 2.8-4.4 5.4-4.9 2.4-0.4 5.9-0.9 10.3-1.2z"/>
		<path id="Intersect" class="s0" d="m4.2 45.9q-0.6-0.3-1.2-0.9-0.6-0.6-0.9-1.2l12.8-12.9q-0.4-0.8-0.4-1.9c0-2.5 2-4.5 4.5-4.5 2.5 0 4.5 2 4.5 4.5 0 2.5-2 4.5-4.5 4.5q-1.1 0-1.9-0.4z"/>
	</g>
</svg>