<svg version="1.2" xmlns="http://www.w3.org/2000/svg" viewBox="0 0 48 48" width="48" height="48">
	<title>Code-Monitor-2--Streamline-Plump</title>
	<style>
		.s0 { fill: #3684db } 
		.s1 { fill: #ffffff } 
		.s2 { fill: #d9ebff } 
	</style>
	<g id="code-monitor-2--code-tags-angle-image-ui-ux-design">
		<path id="Union (Stroke)" fill-rule="evenodd" class="s0" d="m28.5 33.4q0-0.1-0.1-0.1 0-0.1-0.1-0.2 0 0-0.1-0.1-0.1 0-0.2 0h-8q-0.1 0-0.2 0-0.1 0.1-0.1 0.1-0.1 0.1-0.1 0.2-0.1 0-0.1 0.1l-0.8 6.3q0 0.3-0.1 0.5-0.2 0.2-0.4 0.4-0.2 0.2-0.4 0.3-0.3 0.1-0.6 0.1h-2.8q-0.4 0-0.8 0.1-0.3 0.1-0.6 0.4-0.3 0.2-0.6 0.5-0.2 0.3-0.3 0.7-0.1 0.4-0.1 0.8 0.1 0.4 0.3 0.8 0.3 0.3 0.7 0.5 0.4 0.2 0.8 0.2h20.4q0.5 0 0.8-0.2 0.4-0.2 0.7-0.5 0.2-0.4 0.3-0.8 0.1-0.4-0.1-0.8-0.1-0.4-0.3-0.7-0.3-0.3-0.6-0.5-0.3-0.3-0.6-0.4-0.4-0.1-0.8-0.1h-2.8q-0.3 0-0.6-0.1-0.2-0.1-0.4-0.3-0.2-0.2-0.4-0.4-0.1-0.2-0.1-0.5c0 0-0.8-6.3-0.8-6.3z"/>
		<path id="Subtract" fill-rule="evenodd" class="s1" d="m8.1 36.1c3.3 0.2 8.5 0.4 15.9 0.4 7.4 0 12.6-0.2 15.9-0.4 3.2-0.2 5.8-2.6 6.1-5.9 0.3-2.5 0.5-6.2 0.5-11.2 0-5-0.2-8.7-0.5-11.2-0.3-3.3-2.9-5.7-6.1-5.9-3.3-0.2-8.5-0.4-15.9-0.4-7.4 0-12.6 0.2-15.9 0.4-3.2 0.2-5.8 2.6-6.1 5.9-0.3 2.5-0.5 6.2-0.5 11.2 0 5 0.2 8.7 0.4 11.2 0.4 3.3 3 5.7 6.2 5.9z"/>
		<path id="Intersect" class="s0" d="m17 1.6v34.8c-3.8 0-6.8-0.2-8.9-0.3-3.2-0.2-5.8-2.6-6.1-5.9-0.3-2.5-0.5-6.2-0.5-11.2 0-5 0.2-8.7 0.4-11.2 0.4-3.3 3-5.7 6.2-5.9q1.1 0 2.2-0.1 1.2-0.1 2.3-0.1 1.1 0 2.2-0.1 1.1 0 2.2 0z"/>
		<path id="Subtract_2" fill-rule="evenodd" class="s0" d="m23 25.5c-0.4 0-0.8-0.2-1.1-0.4-0.2-0.3-0.4-0.7-0.4-1.1 0-0.4 0.2-0.8 0.4-1.1 0.3-0.2 0.7-0.4 1.1-0.4h12c0.4 0 0.8 0.2 1.1 0.4 0.2 0.3 0.4 0.7 0.4 1.1 0 0.4-0.2 0.8-0.4 1.1-0.3 0.2-0.7 0.4-1.1 0.4z"/>
		<path id="Subtract_3" class="s0" d="m21.5 17q0-0.3 0.1-0.6 0.1-0.2 0.3-0.5 0.3-0.2 0.5-0.3 0.3-0.1 0.6-0.1h16c0.4 0 0.8 0.2 1.1 0.4 0.2 0.3 0.4 0.7 0.4 1.1 0 0.4-0.2 0.8-0.4 1.1-0.3 0.2-0.7 0.4-1.1 0.4h-16q-0.3 0-0.6-0.1-0.2-0.1-0.5-0.3-0.2-0.3-0.3-0.5-0.1-0.3-0.1-0.6z"/>
		<path id="Subtract_4" class="s0" d="m21.5 10q0-0.3 0.1-0.6 0.1-0.2 0.3-0.5 0.3-0.2 0.5-0.3 0.3-0.1 0.6-0.1h16c0.4 0 0.8 0.2 1.1 0.4 0.2 0.3 0.4 0.7 0.4 1.1 0 0.4-0.2 0.8-0.4 1.1-0.3 0.2-0.7 0.4-1.1 0.4h-16q-0.3 0-0.6-0.1-0.2-0.1-0.5-0.3-0.2-0.3-0.3-0.5-0.1-0.3-0.1-0.6z"/>
		<path id="Subtract_5" fill-rule="evenodd" class="s2" d="m8 8.5c-0.4 0-0.8 0.2-1.1 0.4-0.2 0.3-0.4 0.7-0.4 1.1 0 0.4 0.2 0.8 0.4 1.1 0.3 0.2 0.7 0.4 1.1 0.4h3c0.4 0 0.8-0.2 1.1-0.4 0.2-0.3 0.4-0.7 0.4-1.1 0-0.4-0.2-0.8-0.4-1.1-0.3-0.2-0.7-0.4-1.1-0.4zm0 7c-0.4 0-0.8 0.2-1.1 0.4-0.2 0.3-0.4 0.7-0.4 1.1 0 0.4 0.2 0.8 0.4 1.1 0.3 0.2 0.7 0.4 1.1 0.4h3c0.4 0 0.8-0.2 1.1-0.4 0.2-0.3 0.4-0.7 0.4-1.1 0-0.4-0.2-0.8-0.4-1.1-0.3-0.2-0.7-0.4-1.1-0.4z"/>
	</g>
</svg>