<svg version="1.2" xmlns="http://www.w3.org/2000/svg" viewBox="0 0 48 48" width="48" height="48">
	<title>Announcement-Megaphone--Streamline-Plump</title>
	<style>
		.s0 { fill: #3684db } 
		.s1 { fill: #ffffff } 
	</style>
	<g id="annoncement-megaphone">
		<path id="Vector 2506 (Stroke)" fill-rule="evenodd" class="s0" d="m44.5 19.5q0 0.4-0.2 0.8-0.1 0.3-0.4 0.6-0.3 0.3-0.6 0.4-0.4 0.2-0.8 0.2h-3c-0.5 0-1-0.2-1.4-0.6-0.4-0.4-0.6-0.9-0.6-1.4 0-0.5 0.2-1 0.6-1.4 0.4-0.4 0.9-0.6 1.4-0.6h3q0.4 0 0.8 0.2 0.3 0.1 0.6 0.4 0.3 0.3 0.4 0.6 0.2 0.4 0.2 0.8z"/>
		<path id="Vector 2507 (Stroke)" fill-rule="evenodd" class="s0" d="m6.5 19.5q0 0.4 0.2 0.8 0.1 0.3 0.4 0.6 0.3 0.3 0.6 0.4 0.4 0.2 0.8 0.2h3c0.5 0 1-0.2 1.4-0.6 0.4-0.4 0.6-0.9 0.6-1.4 0-0.5-0.2-1-0.6-1.4-0.4-0.4-0.9-0.6-1.4-0.6h-3q-0.4 0-0.8 0.2-0.3 0.1-0.6 0.4-0.3 0.3-0.4 0.6-0.2 0.4-0.2 0.8z"/>
		<path id="Vector 2507 (Stroke)_2" fill-rule="evenodd" class="s0" d="m25.5 0.5q-0.4 0-0.8 0.2-0.3 0.1-0.6 0.4-0.3 0.3-0.4 0.6-0.2 0.4-0.2 0.8v3c0 0.5 0.2 1 0.6 1.4 0.4 0.4 0.9 0.6 1.4 0.6 0.5 0 1-0.2 1.4-0.6 0.4-0.4 0.6-0.9 0.6-1.4v-3q0-0.4-0.2-0.8-0.1-0.3-0.4-0.6-0.3-0.3-0.6-0.4-0.4-0.2-0.8-0.2z"/>
		<path id="Vector 2507 (Stroke)_3" fill-rule="evenodd" class="s0" d="m12.1 6.1q-0.3 0.2-0.5 0.6-0.1 0.4-0.1 0.8 0 0.4 0.1 0.7 0.2 0.4 0.5 0.7l2.1 2.1c0.4 0.4 0.9 0.6 1.4 0.6 0.5 0 1.1-0.2 1.4-0.6 0.4-0.3 0.6-0.9 0.6-1.4 0-0.5-0.2-1-0.6-1.4l-2.1-2.1q-0.3-0.3-0.7-0.5-0.3-0.1-0.7-0.1-0.4 0-0.8 0.1-0.4 0.2-0.6 0.5z"/>
		<path id="Vector 2507 (Stroke)_4" fill-rule="evenodd" class="s0" d="m38.9 6.1q0.3 0.2 0.5 0.6 0.1 0.4 0.1 0.8 0 0.4-0.1 0.7-0.2 0.4-0.5 0.7l-2.1 2.1c-0.4 0.4-0.9 0.6-1.4 0.6-0.5 0-1.1-0.2-1.4-0.6-0.4-0.3-0.6-0.9-0.6-1.4 0-0.5 0.2-1 0.6-1.4l2.1-2.1q0.3-0.3 0.7-0.5 0.3-0.1 0.7-0.1 0.4 0 0.8 0.1 0.4 0.2 0.6 0.5z"/>
		<path id="Ellipse 21 (Stroke)" fill-rule="evenodd" class="s0" d="m22.2 35.5q-0.4 0.1-0.7 0.3-0.3 0.3-0.5 0.6-0.2 0.4-0.3 0.7 0 0.4 0.1 0.8l0.6 2.2c0.2 0.7 0.1 1.4-0.3 2-0.3 0.6-0.9 1-1.6 1.2-0.6 0.2-1.3 0.1-1.9-0.2-0.6-0.4-1.1-1-1.2-1.6l-0.5-1.9c-0.2-0.5-0.5-0.9-1-1.2-0.4-0.2-1-0.3-1.5-0.2-0.5 0.2-0.9 0.5-1.2 1-0.3 0.4-0.3 1-0.2 1.5l0.5 1.8c0.5 1.7 1.6 3.1 3.1 4 1.5 0.9 3.3 1.1 5 0.7 1.7-0.5 3.1-1.6 4-3.1 0.9-1.5 1.1-3.3 0.6-5l-0.6-2.2q-0.1-0.4-0.3-0.7-0.2-0.3-0.6-0.5-0.3-0.2-0.7-0.3-0.4 0-0.8 0.1z"/>
		<path id="Union" fill-rule="evenodd" class="s1" d="m27.2 10.1c-0.3-0.3-0.7-0.4-1.1-0.5-0.4 0-0.8 0.2-1 0.4-0.3 0.3-0.5 0.7-0.5 1.1-0.1 0.4 0.1 0.7 0.3 1-8.6 7.6-17.6 16.8-20.8 20.2-1.2 1.2-1.6 3.1-0.9 4.7q0.1 0.2 0.2 0.5 0.1 0.2 0.2 0.4 0.1 0.3 0.3 0.5 0.1 0.2 0.2 0.5 0.1 0.2 0.3 0.4 0.1 0.2 0.2 0.4 0.2 0.2 0.3 0.5 0.2 0.2 0.3 0.4c1.1 1.4 2.9 2 4.6 1.6 4.5-1.2 17-4.4 27.9-8 0.1 0.3 0.3 0.6 0.7 0.8 0.4 0.2 0.8 0.2 1.1 0.1 0.4-0.1 0.7-0.4 0.9-0.7 0.2-0.4 0.2-0.8 0.1-1.2q0-0.1-0.1-0.2 0-0.1 0-0.2-0.1 0-0.1-0.1 0-0.1-0.1-0.2-0.1-0.3-0.2-0.6-0.1-0.2-0.2-0.5-0.1-0.3-0.3-0.5-0.1-0.3-0.2-0.6c-0.9-1.9-2.4-4.9-4.8-9-2.4-4.2-4.2-6.9-5.4-8.7q-0.2-0.2-0.4-0.4-0.1-0.3-0.3-0.5-0.2-0.3-0.4-0.5-0.1-0.2-0.3-0.4-0.1-0.1-0.1-0.2-0.1-0.1-0.2-0.2 0 0-0.1-0.1-0.1-0.1-0.1-0.2z"/>
		<path id="Intersect" class="s0" d="m33.9 35.4q-0.2-0.4-0.3-0.7-0.2-0.4-0.3-0.8-0.2-0.3-0.4-0.7-0.1-0.3-0.3-0.7-0.4-1-0.9-2-0.5-1-1-1.9-0.5-1-1.1-2-0.5-0.9-1-1.9-0.6-0.9-1.2-1.9-0.5-0.9-1.1-1.8-0.6-1-1.2-1.9-0.6-0.9-1.3-1.8-0.2-0.3-0.4-0.6-0.2-0.3-0.5-0.6-0.2-0.4-0.4-0.7-0.3-0.3-0.5-0.6-1.1 1-2.2 2l0.2 0.3q0.2 0.3 0.3 0.5 0.2 0.2 0.4 0.5 0.2 0.2 0.3 0.5 0.2 0.2 0.4 0.5 0.6 0.8 1.2 1.7 0.6 0.9 1.2 1.8 0.5 0.9 1.1 1.8 0.5 0.9 1.1 1.8 0.5 0.9 1 1.9 0.5 0.9 1 1.9 0.5 0.9 1 1.9 0.4 0.9 0.9 1.9 0.1 0.3 0.3 0.6 0.1 0.3 0.3 0.6 0.1 0.3 0.2 0.7 0.2 0.3 0.3 0.6 1.4-0.4 2.9-0.9z"/>
	</g>
</svg>