<svg version="1.2" xmlns="http://www.w3.org/2000/svg" viewBox="0 0 48 48" width="48" height="48">
	<title>Web--Streamline-Plump</title>
	<style>
		.s0 { fill: #d9ebff } 
		.s1 { fill: #3684db } 
	</style>
	<g id="web--server-world-internet-earth-www-globe-worldwide-web-network">
		<path id="Union" class="s0" d="m24 1.5c-12.4 0-22.5 10.1-22.5 22.5 0 12.4 10.1 22.5 22.5 22.5 12.4 0 22.5-10.1 22.5-22.5 0-12.4-10.1-22.5-22.5-22.5z"/>
		<path id="Intersect" fill-rule="evenodd" class="s1" d="m17.1 32.5c0.4 3.1 1.1 5.8 1.9 8.1 0.8 2.1 1.7 3.7 2.6 4.7q0.8 0.9 1.4 1.2-0.6 0-1.2-0.1-0.6-0.1-1.2-0.2-0.6 0-1.2-0.2-0.6-0.1-1.2-0.3c-0.7-1.1-1.4-2.5-2-4.1-0.9-2.6-1.7-5.7-2.1-9.1h-10.9q-0.2-0.4-0.3-0.7-0.2-0.4-0.3-0.8-0.1-0.4-0.2-0.7-0.1-0.4-0.2-0.8h11.5q0-0.7-0.1-1.4 0-0.7 0-1.3-0.1-0.7-0.1-1.4 0-0.7 0-1.4 0-2.8 0.2-5.5h-11.5q0.4-1.5 1-3h10.9c0.4-3.4 1.2-6.5 2.1-9.1 0.6-1.6 1.3-3 2-4.2q0.6-0.1 1.2-0.2 0.6-0.2 1.2-0.2 0.6-0.1 1.2-0.2 0.6-0.1 1.2-0.1-0.6 0.3-1.4 1.2c-0.9 1-1.8 2.6-2.6 4.7-0.8 2.3-1.5 5-1.9 8.1h13.8c-0.4-3.1-1.1-5.8-2-8.1-0.7-2.1-1.6-3.7-2.5-4.7q-0.8-0.9-1.4-1.2 2.5 0.1 4.8 0.7c0.7 1.2 1.4 2.6 2 4.2 0.9 2.6 1.7 5.7 2.1 9.1h10.9q0.6 1.5 1 3h-11.5q0.2 2.7 0.2 5.5 0 2.8-0.2 5.5h11.5q-0.1 0.4-0.2 0.8-0.1 0.3-0.2 0.7-0.1 0.4-0.3 0.8-0.1 0.3-0.3 0.7h-10.9c-0.4 3.4-1.2 6.5-2.1 9.1-0.6 1.6-1.3 3-2 4.1q-0.6 0.2-1.2 0.3-0.6 0.2-1.2 0.2-0.6 0.1-1.2 0.2-0.6 0.1-1.2 0.1 0.6-0.3 1.4-1.2c0.9-1 1.8-2.6 2.6-4.7 0.8-2.3 1.5-5 1.9-8.1zm14.4-8.5q0-2.8-0.2-5.5h-14.5q-0.1 0.7-0.1 1.4-0.1 0.7-0.1 1.3-0.1 0.7-0.1 1.4 0 0.7 0 1.4 0 0.7 0 1.4 0 0.7 0.1 1.4 0 0.6 0.1 1.3 0 0.7 0.1 1.4h14.5q0-0.7 0.1-1.4 0-0.7 0.1-1.3 0-0.7 0-1.4 0-0.7 0-1.4z"/>
	</g>
</svg>