<svg version="1.2" xmlns="http://www.w3.org/2000/svg" viewBox="0 0 48 48" width="48" height="48">
	<title>Browser-Code-1--Streamline-Plump</title>
	<style>
		.s0 { fill: #ffffff } 
		.s1 { fill: #3684db } 
		.s2 { fill: #d9ebff } 
	</style>
	<g id="browser-code-1--code-browser-line-shell-command-terminal">
		<path id="Union" class="s0" d="m24 46.5c-7.4 0-12.6-0.3-15.9-0.5-3.3-0.3-5.8-2.8-6.1-6.1-0.2-3.3-0.5-8.5-0.5-15.9 0-7.4 0.3-12.6 0.5-15.9 0.3-3.3 2.8-5.8 6.1-6.1 3.3-0.2 8.5-0.5 15.9-0.5 7.4 0 12.6 0.3 15.9 0.5 3.3 0.3 5.8 2.8 6.1 6.1 0.2 3.3 0.5 8.5 0.5 15.9 0 7.4-0.3 12.6-0.5 15.9-0.3 3.3-2.8 5.8-6.1 6.1-3.3 0.2-8.5 0.5-15.9 0.5z"/>
		<path id="Intersect" class="s1" d="m46.3 13h-44.6q0.2-2.9 0.3-4.9c0.3-3.3 2.8-5.8 6.1-6.1 3.3-0.2 8.5-0.5 15.9-0.5 7.4 0 12.6 0.3 15.9 0.5 3.3 0.3 5.8 2.8 6.1 6.1q0.1 2 0.3 4.9z"/>
		<path id="Subtract" fill-rule="evenodd" class="s2" d="m8 7.5q0-0.3 0.1-0.6 0.1-0.2 0.3-0.5 0.3-0.2 0.5-0.3 0.3-0.1 0.6-0.1h2c0.4 0 0.8 0.2 1.1 0.4 0.2 0.3 0.4 0.7 0.4 1.1 0 0.4-0.2 0.8-0.4 1.1-0.3 0.2-0.7 0.4-1.1 0.4h-2q-0.3 0-0.6-0.1-0.2-0.1-0.5-0.3-0.2-0.3-0.3-0.5-0.1-0.3-0.1-0.6zm9.5-1.5c-0.4 0-0.8 0.2-1.1 0.4-0.2 0.3-0.4 0.7-0.4 1.1 0 0.4 0.2 0.8 0.4 1.1 0.3 0.2 0.7 0.4 1.1 0.4h2c0.4 0 0.8-0.2 1.1-0.4 0.2-0.3 0.4-0.7 0.4-1.1 0-0.4-0.2-0.8-0.4-1.1-0.3-0.2-0.7-0.4-1.1-0.4z"/>
		<path id="Union_2" class="s1" d="m13.1 38.2c2.5-1.2 5.1-2.6 7.3-4.5 1-0.9 2.1-2.1 2.1-3.7 0-1.6-1.1-2.8-2.1-3.7-2.2-1.9-4.8-3.3-7.3-4.5q-0.4-0.3-0.9-0.3-0.5 0-1 0.1-0.5 0.2-0.8 0.5-0.4 0.3-0.6 0.8-0.3 0.4-0.3 0.9 0 0.5 0.1 1 0.2 0.5 0.5 0.8 0.3 0.4 0.8 0.6l0.2 0.2c2.1 1 4.2 2.1 5.9 3.6-1.7 1.5-3.8 2.6-5.9 3.6l-0.2 0.2q-0.5 0.2-0.8 0.6-0.3 0.3-0.5 0.8-0.1 0.5-0.1 1 0 0.5 0.3 0.9 0.2 0.5 0.6 0.8 0.3 0.3 0.8 0.5 0.5 0.1 1 0.1 0.5 0 0.9-0.3z"/>
		<path id="Union_3" class="s1" d="m26 33.5c-0.7 0-1.3 0.3-1.8 0.7-0.4 0.5-0.7 1.1-0.7 1.8 0 0.7 0.3 1.3 0.7 1.8 0.5 0.4 1.1 0.7 1.8 0.7h10c0.7 0 1.3-0.3 1.8-0.7 0.4-0.5 0.7-1.1 0.7-1.8 0-0.7-0.3-1.3-0.7-1.8-0.5-0.4-1.1-0.7-1.8-0.7z"/>
	</g>
</svg>