<svg version="1.2" xmlns="http://www.w3.org/2000/svg" viewBox="0 0 300 300" width="300" height="300">
	<title>KrestDevFavIcon</title>
	<style>
		.s0 { fill: #ffffff } 
	</style>
	<g>
		<path class="s0" d="m5.6 228.9l91.6-171.3c4.6-6.9 24.2-34.6 62-44 30-7.5 54.6 0.7 63.5 4.2-10 4.2-17.7 8.7-23 12-10.3 6.6-25.9 16.8-37.2 35.7-2 3.3-3.3 6-4 7.5 0 0-63.7 132.7-105.2 196.7-1.7 2.6-6.1 9-13.9 12-11.3 4.3-22.8-0.5-28.9-5.8-11.5-9.8-14.2-29.4-4.9-47z"/>
		<path class="s0" d="m299.9 250.4c1.5 17.2-10.7 34.2-27.8 38.2-18.8 4.4-33.4-9.3-34.4-10.3-27.4-23.3-54.7-46.7-82.1-70-9.7-9.1-14-18-16.1-24.5-9.9-30.5 8.8-69.7 46.8-98-2.7 3.5-6.1 9.2-7.4 16.9-2 11.6 2.6 23.3 13.3 37.6 26.3 35.3 82.1 76.5 91.5 83.3 2 1.6 14.8 10.8 16.2 26.8z"/>
		<path class="s0" d="m247.2 143.9c-25.9 0-46.9-21-46.9-46.9 0-25.9 21-46.9 46.9-46.9 25.9 0 46.9 21 46.9 46.9 0 25.9-21 46.9-46.9 46.9z"/>
	</g>
</svg>